<?xml version="1.0" encoding="UTF-8" standalone="no"?>
<!DOCTYPE svg PUBLIC "-//W3C//DTD SVG 1.1//EN" "http://www.w3.org/Graphics/SVG/1.1/DTD/svg11.dtd">
<svg width="100%" height="100%" viewBox="0 0 400 400" version="1.1" xmlns="http://www.w3.org/2000/svg" xmlns:xlink="http://www.w3.org/1999/xlink" xml:space="preserve" xmlns:serif="http://www.serif.com/" style="fill-rule:evenodd;clip-rule:evenodd;stroke-linejoin:round;stroke-miterlimit:2;">
    <rect x="0" y="0" width="400" height="400" style="fill:url(#_Linear1);"/>
    <g transform="matrix(1,0,0,1,-26.8859,-48.1325)">
        <g transform="matrix(66.6667,0,0,66.6667,277.686,378.571)">
        </g>
        <text x="176.086px" y="378.571px" style="font-family:'Avenir-Book', 'Avenir';font-size:66.667px;fill:white;">API</text>
    </g>
    <g transform="matrix(0.692793,0,0,0.692793,43.8706,11.5784)">
        <path d="M237.389,65.783L241.351,85.07C249.018,86.244 256.533,88.257 263.76,91.075L276.834,76.352C284.15,79.679 291.127,83.707 297.666,88.38L291.453,107.064C297.507,111.913 303.008,117.415 307.857,123.468L326.541,117.255C331.214,123.794 335.242,130.771 338.569,138.087L323.846,151.162C326.664,158.388 328.677,165.903 329.851,173.57L349.138,177.532C349.915,185.531 349.915,193.587 349.138,201.586L329.851,205.548C328.677,213.215 326.664,220.73 323.846,227.956L338.569,241.031C335.242,248.347 331.214,255.324 326.541,261.863L307.857,255.65C303.008,261.704 297.507,267.205 291.453,272.054L297.666,290.738C291.127,295.411 284.15,299.439 276.834,302.766L263.76,288.043C256.533,290.861 249.018,292.874 241.351,294.048L237.389,313.335C229.39,314.112 221.334,314.112 213.335,313.335L209.373,294.048C201.706,292.874 194.191,290.861 186.965,288.043L173.89,302.766C166.574,299.439 159.597,295.411 153.058,290.738L159.271,272.054C153.218,267.205 147.716,261.704 142.867,255.65L124.183,261.863C119.51,255.324 115.482,248.347 112.156,241.031L126.878,227.956C124.06,220.73 122.047,213.215 120.873,205.548L101.586,201.586C100.809,193.587 100.809,185.531 101.586,177.532L120.873,173.57C122.047,165.903 124.06,158.388 126.878,151.162L112.156,138.087C115.482,130.771 119.51,123.794 124.183,117.255L142.867,123.468C147.716,117.415 153.218,111.913 159.271,107.064L153.058,88.38C159.597,83.707 166.574,79.679 173.89,76.352L186.965,91.075C194.191,88.257 201.706,86.244 209.373,85.07L213.335,65.783C221.334,65.006 229.39,65.006 237.389,65.783ZM225.362,98.49C175.1,98.49 134.293,139.297 134.293,189.559C134.293,239.822 175.1,280.628 225.362,280.628C275.625,280.628 316.431,239.822 316.431,189.559C316.431,139.297 275.625,98.49 225.362,98.49Z" style="fill:white;"/>
    </g>
    <defs>
        <linearGradient id="_Linear1" x1="0" y1="0" x2="1" y2="0" gradientUnits="userSpaceOnUse" gradientTransform="matrix(2.44828e-14,399.835,-399.835,2.44828e-14,200,0)"><stop offset="0" style="stop-color:rgb(242,145,145);stop-opacity:1"/><stop offset="0.5" style="stop-color:rgb(231,45,45);stop-opacity:1"/><stop offset="1" style="stop-color:rgb(143,0,0);stop-opacity:1"/></linearGradient>
    </defs>
</svg>
