<?xml version="1.0" encoding="UTF-8" standalone="no"?>
<!DOCTYPE svg PUBLIC "-//W3C//DTD SVG 1.1//EN" "http://www.w3.org/Graphics/SVG/1.1/DTD/svg11.dtd">
<svg width="100%" height="100%" viewBox="0 0 32 32" version="1.1" xmlns="http://www.w3.org/2000/svg" xmlns:xlink="http://www.w3.org/1999/xlink" xml:space="preserve" xmlns:serif="http://www.serif.com/" style="fill-rule:evenodd;clip-rule:evenodd;stroke-linecap:round;stroke-linejoin:round;stroke-miterlimit:1.5;">
    <g transform="matrix(0.146932,0,0,0.146932,-114.703,-0.917791)">
        <circle cx="912.811" cy="76.749" r="10.026" style="fill:rgb(115,115,115);"/>
    </g>
    <g transform="matrix(0.146932,0,0,0.146932,-114.604,-0.712545)">
        <path d="M925.244,63.515L938.668,50.637" style="fill:none;stroke:rgb(115,115,115);stroke-width:3.11px;"/>
    </g>
    <g transform="matrix(-0.146932,0,0,0.146932,153.622,-0.713026)">
        <path d="M925.244,63.515L938.668,50.637" style="fill:none;stroke:rgb(115,115,115);stroke-width:3.11px;"/>
    </g>
    <g transform="matrix(0.101715,-0.106033,0.106033,0.101715,-81.3275,99.6277)">
        <path d="M925.244,63.515L938.668,50.637" style="fill:none;stroke:rgb(115,115,115);stroke-width:3.11px;"/>
    </g>
    <g transform="matrix(0.213442,0,0,0.151975,-167.152,-1.58227)">
        <path d="M791.13,166.999L784.746,166.999L784.746,86.84C784.746,81.649 787.742,77.44 791.439,77.44L887.901,77.44L887.872,83.011L895.133,83.031L916.303,119.156L931.292,132.974L931.373,156.631L923.577,166.999L911.348,166.999C911.348,154.727 904.254,144.763 895.516,144.763C889.904,144.763 884.97,148.873 882.158,155.065L820.319,155.065C817.508,148.873 812.574,144.763 806.962,144.763C798.224,144.763 791.13,154.727 791.13,166.999ZM879.684,166.999L822.794,166.999L822.794,160L879.684,160L879.684,166.999ZM888.96,90.172L889.108,118.076L891.873,122.219L910.461,122.219L910.496,117.778C910.496,117.778 895.22,90.16 895.13,90.142C895.04,90.125 888.96,90.172 888.96,90.172Z" style="fill:url(#_Linear1);"/>
    </g>
    <g transform="matrix(0.106668,0,0,0.128561,-79.2034,0.769216)">
        <rect x="859.466" y="94.712" width="10.857" height="45.744" style="fill:white;"/>
    </g>
    <g transform="matrix(6.53156e-18,0.106668,-0.128566,7.87242e-18,28.1708,-76.3711)">
        <rect x="859.466" y="94.712" width="10.857" height="45.744" style="fill:white;"/>
    </g>
    <g id="wheels" transform="matrix(0.146932,0,0,0.146932,-114.703,-0.917791)">
        <g transform="matrix(1,0,0,1,-30.3478,-21.7605)">
            <path d="M845.625,172.852C855.072,172.852 862.742,180.522 862.742,189.969C862.742,199.416 855.072,207.085 845.625,207.085C836.179,207.085 828.509,199.416 828.509,189.969C828.509,180.522 836.179,172.852 845.625,172.852ZM845.625,180.803C840.588,180.803 836.498,184.91 836.498,189.969C836.498,195.028 840.588,199.135 845.625,199.135C850.663,199.135 854.752,195.028 854.752,189.969C854.752,184.91 850.663,180.803 845.625,180.803Z" style="fill:rgb(115,115,115);"/>
        </g>
        <g transform="matrix(1,0,0,1,98.2915,-21.7605)">
            <path d="M845.625,172.852C855.072,172.852 862.742,180.522 862.742,189.969C862.742,199.416 855.072,207.085 845.625,207.085C836.179,207.085 828.509,199.416 828.509,189.969C828.509,180.522 836.179,172.852 845.625,172.852ZM845.625,180.803C840.588,180.803 836.498,184.91 836.498,189.969C836.498,195.028 840.588,199.135 845.625,199.135C850.663,199.135 854.752,195.028 854.752,189.969C854.752,184.91 850.663,180.803 845.625,180.803Z" style="fill:rgb(115,115,115);"/>
        </g>
    </g>
    <defs>
        <linearGradient id="_Linear1" x1="0" y1="0" x2="1" y2="0" gradientUnits="userSpaceOnUse" gradientTransform="matrix(144.7,0,0,88.3808,784.746,122.219)"><stop offset="0" style="stop-color:rgb(242,145,145);stop-opacity:1"/><stop offset="0.5" style="stop-color:rgb(231,45,45);stop-opacity:1"/><stop offset="1" style="stop-color:rgb(143,0,0);stop-opacity:1"/></linearGradient>
    </defs>
</svg>
