<?xml version="1.0" encoding="UTF-8" standalone="no"?>
<!DOCTYPE svg PUBLIC "-//W3C//DTD SVG 1.1//EN" "http://www.w3.org/Graphics/SVG/1.1/DTD/svg11.dtd">
<svg width="100%" height="100%" viewBox="0 0 400 400" version="1.1" xmlns="http://www.w3.org/2000/svg" xmlns:xlink="http://www.w3.org/1999/xlink" xml:space="preserve" xmlns:serif="http://www.serif.com/" style="fill-rule:evenodd;clip-rule:evenodd;stroke-linecap:round;stroke-linejoin:round;stroke-miterlimit:1.5;">
    <rect x="0" y="0" width="400" height="400" style="fill:url(#_Linear1);"/>
    <g transform="matrix(1,0,0,1,-26.8859,-48.1325)">
        <g transform="matrix(66.6667,0,0,66.6667,384.286,378.571)">
        </g>
        <text x="69.486px" y="378.571px" style="font-family:'Avenir-Book', 'Avenir';font-size:66.667px;fill:white;">user guide</text>
    </g>
    <g transform="matrix(0.78396,0,0,0.711753,57.518,24.5983)">
        <path d="M181.086,75.774C180.919,76.692 133.729,42.909 56.334,47.835L55.403,245.054C55.403,245.054 152.091,240.646 181.095,258.159C181.095,258.159 181.252,74.856 181.086,75.774Z" style="fill:none;stroke:white;stroke-width:11.23px;"/>
    </g>
    <g transform="matrix(-0.78396,0,0,0.711753,341.566,24.5983)">
        <path d="M181.086,75.774C180.919,76.692 133.729,42.909 56.334,47.835L55.403,245.054C55.403,245.054 152.091,240.646 181.095,258.159C181.095,258.159 181.252,74.856 181.086,75.774Z" style="fill:none;stroke:white;stroke-width:11.23px;"/>
    </g>
    <g transform="matrix(0.711753,0,0,0.711753,61.5712,23.8264)">
        <path d="M34.183,53.92L34.939,267.878L181.879,271.766L181.885,282.808L193.846,282.636" style="fill:none;stroke:white;stroke-width:11.81px;"/>
    </g>
    <g transform="matrix(-0.711753,0,0,0.711753,337.513,23.8264)">
        <path d="M34.183,53.92L34.939,267.878L181.879,271.766L181.885,282.808L193.846,282.636" style="fill:none;stroke:white;stroke-width:11.81px;"/>
    </g>
    <defs>
        <linearGradient id="_Linear1" x1="0" y1="0" x2="1" y2="0" gradientUnits="userSpaceOnUse" gradientTransform="matrix(2.44828e-14,399.835,-399.835,2.44828e-14,200,0)"><stop offset="0" style="stop-color:rgb(242,145,145);stop-opacity:1"/><stop offset="0.5" style="stop-color:rgb(231,45,45);stop-opacity:1"/><stop offset="1" style="stop-color:rgb(143,0,0);stop-opacity:1"/></linearGradient>
    </defs>
</svg>
